<svg aria-hidden="true" style="width:0;height:0;position:absolute;overflow:hidden" xmlns="http://www.w3.org/2000/svg"><defs><symbol id="logo" viewBox="0 0 192 32"><path d="M180.878 17.657c.204-1.634 1.1-2.276 3.018-2.276h.765c1.917 0 2.812.642 3.018 2.276h-6.801zm4.167-5.317h-1.541c-3.86 0-6.084 2.224-6.084 6.085v1.348c0 3.858 2.224 6.057 6.084 6.057h6.417c.094-.011.182-.056.246-.127s.101-.162.104-.257V23.17c0-.204.025-.382-.181-.382h-6.203c-1.842 0-2.868-.749-2.966-2.251h9.84a.39.39 0 0 0 .384-.382v-1.737c0-3.86-2.249-6.085-6.11-6.085zM119.779 17.657c.204-1.634 1.099-2.276 3.017-2.276h.766c1.917 0 2.812.642 3.016 2.276h-6.799zm4.167-5.317h-1.535c-3.859 0-6.083 2.224-6.083 6.085v1.348c0 3.858 2.224 6.057 6.083 6.057h6.42a.393.393 0 0 0 .35-.384V23.17c0-.204.025-.382-.18-.382h-6.207c-1.84 0-2.868-.749-2.966-2.251h9.842c.101-.002.197-.043.268-.115s.112-.167.115-.268v-1.737c0-3.86-2.25-6.085-6.108-6.085zM89.401 17.657c.204-1.634 1.1-2.276 3.016-2.276h.766c1.917 0 2.812.642 3.018 2.276H89.4zm4.166-5.317h-1.533c-3.86 0-6.083 2.224-6.083 6.085v1.348c0 3.858 2.223 6.057 6.083 6.057h6.416a.396.396 0 0 0 .35-.384V23.17c0-.204.025-.382-.18-.382h-6.21c-1.84 0-2.866-.749-2.964-2.251h9.84a.39.39 0 0 0 .384-.382v-1.737c0-3.86-2.249-6.085-6.11-6.085zM73.48 25.836c.207 0 .258-.155.258-.361V18.46c0-2.203.455-3.048 3.023-3.048h.764c2.612 0 3.047.846 3.047 2.663v7.396c0 .207.016.361.224.361h2.982c.204 0 .227-.157.227-.361v-7.397c0-3.788-2.049-5.709-6.095-5.709h-1.533a8.757 8.757 0 0 0-2.648.631v-.456c0-.204 0-.386-.21-.386h-3c-.206 0-.209.18-.209.386v12.934c0 .207.015.361.217.361l2.953.002zM47.18 12.141h-1.54a7.752 7.752 0 0 0-2.655.462V7.598c0-.15-.18-.222-.361-.222H39.89c-.18 0-.343.071-.35.215v8.935h3.665c.379-1.032 1.263-1.342 2.818-1.342h.77c2.177 0 3.05.846 3.05 3.048v1.538c0 2.203-.876 3.152-3.05 3.152h-.77c-2.203 0-3.048-.949-3.048-3.152v-1.059h-3.427v6.948c0 .18.157.18.337.18h8.763c2.886-.083 4.598-2.721 4.598-6.063v-1.539c0-3.869-2.205-6.097-6.066-6.097zM110.516 26.154l-4.591-.016c-2.526 0-4.405-1.624-4.577-3.864a.363.363 0 0 1 .361-.387l2.733.009c.209 0 .31.18.385.39.234.7 1.16.781 1.467.781l3.844.015c.361 0 1.522-.206 1.525-1.262.002-1.057-1.16-1.082-1.518-1.082l-4.208-.02c-2.685-.011-4.616-1.665-4.607-4.095s1.952-4.149 4.605-4.138l4.048.015c2.397 0 4.202 1.465 4.525 3.552a.368.368 0 0 1-.238.36.38.38 0 0 1-.15.026h-2.684a.834.834 0 0 1-.563-.39 1.71 1.71 0 0 0-1.288-.467l-3.247-.011c-.361 0-1.571 0-1.576 1.051 0 1.082 1.21 1.041 1.54 1.041l4.236.015c2.675.011 4.578 1.717 4.569 4.169s-1.923 4.329-4.6 4.319zM140.059 12.335h-3.389c-2.663 0-4.6 1.763-4.6 4.191v8.93c0 .202 0 .386.201.386h3.001c.206 0 .23-.18.23-.386v-8.957c0-1.046 1.174-1.102 1.535-1.102h3.023c.153 0 .276-.031.276-.2v-2.641c0-.17-.123-.215-.276-.225zM156.447 25.45c0 .204 0 .386.2.386h3.002c.207 0 .23-.18.23-.387v-6.734h-3.432v6.735zM159.683 12.469h-3c-.208 0-.23.18-.23.386v3.677h3.427v-3.677c0-.202 0-.386-.202-.386zM64.94 21.637c0 1.051-.108 1.154-1.508 1.154h-3.814c-.361 0-1.538-.101-1.538-1.154v-.381c0-1.082 1.179-1.128 1.538-1.128h3.814c.361 0 1.508.051 1.508 1.128v.381zm3.427-3.247c0-3.864-2.228-6.066-6.095-6.066h-5.52a.387.387 0 0 0-.261.118.364.364 0 0 0-.1.268v2.276a.372.372 0 0 0 .361.385h5.144c1.712 0 2.608.541 2.918 1.816a5.97 5.97 0 0 0-.997-.105h-4.582c-2.638 0-4.582 1.741-4.582 4.176v.381c0 2.435 1.945 4.202 4.582 4.202h8.922c.037.004.074-.004.106-.023s.058-.046.074-.08a.707.707 0 0 0 .04-.285l-.011-7.063zM154.707 12.322h-2.885c-.206 0-.309.21-.386.449 0 0-2.926 8.405-3.012 8.405s-3.014-8.405-3.014-8.405c-.078-.24-.181-.451-.386-.451h-2.886c-.206 0-.283.211-.181.451 0 0 3.994 11.058 4.824 12.903v.02c.05.112.112.132.147.135h2.957c.038 0 .098-.023.15-.137.808-1.784 4.833-12.927 4.833-12.927.102-.24.027-.449-.181-.449zM165.996 16.524c.599-.767 1.001-.902 2.647-.927h.772a4.074 4.074 0 0 1 2.054.346c.225.162.422.359.584.584.154.21.18.393.392.393h3.228c.212 0 .284-.19.212-.393a6.005 6.005 0 0 0-.426-.956c-1.06-2.036-2.985-3.106-5.655-3.117h-1.551c-2.924 0-5.316 1.262-5.926 4.067l3.669.003zm9.66 5.015h-3.027c-.204 0-.286.18-.387.39-.441.804-1.322 1.142-2.721 1.142h-.772c-2.228 0-3.083-.855-3.083-3.081v-1.275h-3.473v1.275c0 3.938 2.228 6.158 6.166 6.158h1.551c3.211 0 5.312-1.501 5.954-4.219.05-.204 0-.39-.21-.39zM15.831 32a15.83 15.83 0 0 0 15.666-13.587L.166 18.41A15.826 15.826 0 0 0 15.83 32zM9.012 16.86c-1.29 0-2.542-.202-2.719-.796-.15-.5.456-.94 1.001-1.28a57.156 57.156 0 0 1 7.145-3.274 6.189 6.189 0 0 1 3.595-.229c.911.195 8.601 1.607 13.488 2.502a15.814 15.814 0 0 0-6.038-10.51A15.837 15.837 0 0 0 13.78.117 15.828 15.828 0 0 0 .134 17.875h31.465c.036-.325.061-.653.078-.983l-22.666-.031z"/></symbol><symbol id="arrow-up-right" viewBox="0 0 32 32"><path fill="none" stroke="#1f4a21" style="stroke:var(--color1,#1f4a21)" stroke-linejoin="round" stroke-linecap="round" stroke-width="2.667" d="M6.572 16h18.856M16 6.572 25.428 16 16 25.428"/></symbol><symbol id="icon-Vector" viewBox="0 0 23 32"><path d="M2.958.62A1.43 1.43 0 0 0 1.482.514a1.427 1.427 0 0 0-.771 1.264v28.444a1.421 1.421 0 0 0 2.247 1.158l19.911-14.222A1.418 1.418 0 0 0 23.465 16a1.416 1.416 0 0 0-.596-1.158L2.958.62z"/></symbol><symbol id="icon-cross" viewBox="0 0 32 32"><path d="M31.708 25.708 22 16l9.708-9.708a1 1 0 0 0 0-1.414L27.122.292a1 1 0 0 0-1.414-.001L16 9.999 6.292.291a.998.998 0 0 0-1.414.001L.292 4.878a1 1 0 0 0 0 1.414L10 16 .292 25.708a.999.999 0 0 0 0 1.414l4.586 4.586a1 1 0 0 0 1.414 0L16 22l9.708 9.708a1 1 0 0 0 1.414 0l4.586-4.586a.999.999 0 0 0 0-1.414z"/></symbol><symbol id="icon" viewBox="0 0 192 32"><path fill="#1f4a21" style="fill:var(--color1,#1f4a21)" d="M180.877 17.657c.203-1.634 1.101-2.276 3.018-2.276h.765c1.918 0 2.813.642 3.019 2.276h-6.802zm4.166-5.318h-1.539c-3.861 0-6.085 2.224-6.085 6.085v1.348c0 3.859 2.224 6.057 6.085 6.057h6.416c.094-.011.182-.056.246-.127s.101-.162.104-.257v-2.276c0-.204.024-.382-.181-.382h-6.203c-1.843 0-2.869-.749-2.966-2.251h9.84a.394.394 0 0 0 .384-.382v-1.737c0-3.86-2.25-6.085-6.11-6.085zM119.779 17.657c.204-1.634 1.098-2.276 3.016-2.276h.766c1.917 0 2.812.642 3.016 2.276h-6.799zm4.167-5.318h-1.535c-3.859 0-6.083 2.224-6.083 6.085v1.348c0 3.859 2.224 6.057 6.083 6.057h6.42a.396.396 0 0 0 .35-.384v-2.276c0-.204.025-.382-.18-.382h-6.207c-1.84 0-2.868-.749-2.966-2.251h9.842c.101-.002.197-.043.268-.115s.112-.167.115-.268v-1.737c0-3.86-2.249-6.085-6.108-6.085zM89.399 17.657c.204-1.634 1.1-2.276 3.016-2.276h.766c1.917 0 2.812.642 3.018 2.276h-6.801zm4.167-5.318h-1.533c-3.86 0-6.083 2.224-6.083 6.085v1.348c0 3.859 2.222 6.057 6.083 6.057h6.416a.396.396 0 0 0 .351-.384v-2.276c0-.204.025-.382-.18-.382h-6.21c-1.84 0-2.866-.749-2.964-2.251h9.84a.39.39 0 0 0 .384-.382v-1.737c0-3.86-2.249-6.085-6.11-6.085zM73.479 25.836c.207 0 .258-.155.258-.361v-7.016c0-2.203.455-3.048 3.023-3.048h.765c2.612 0 3.047.846 3.047 2.663v7.396c0 .207.016.361.224.361h2.982c.204 0 .227-.157.227-.361v-7.397c0-3.788-2.049-5.709-6.095-5.709h-1.533a8.73 8.73 0 0 0-2.648.632v-.456c0-.204 0-.386-.21-.386h-3c-.205 0-.209.18-.209.386v12.934c0 .207.015.361.216.361l2.953.002zM47.178 12.141h-1.54a7.752 7.752 0 0 0-2.655.462V7.598c0-.15-.18-.222-.361-.222h-2.734c-.18 0-.343.071-.35.215v8.935h3.665c.379-1.032 1.262-1.342 2.818-1.342h.77c2.177 0 3.05.846 3.05 3.048v1.539c0 2.203-.875 3.152-3.05 3.152h-.77c-2.203 0-3.048-.949-3.048-3.152v-1.059h-3.427v6.948c0 .18.157.18.337.18h8.763c2.886-.083 4.598-2.72 4.598-6.063v-1.539c0-3.869-2.204-6.097-6.067-6.097zM110.517 26.154l-4.591-.016c-2.525 0-4.405-1.624-4.576-3.864-.004-.049.003-.099.02-.146s.043-.089.076-.126a.354.354 0 0 1 .264-.115l2.733.009c.21 0 .311.18.386.39.234.7 1.16.781 1.467.781l3.844.015c.361 0 1.522-.205 1.524-1.262s-1.16-1.082-1.517-1.082l-4.208-.02c-2.685-.011-4.616-1.665-4.607-4.095s1.952-4.149 4.605-4.138l4.048.015c2.397 0 4.202 1.465 4.526 3.552a.387.387 0 0 1-.111.277.377.377 0 0 1-.278.109h-2.685a.83.83 0 0 1-.563-.389 1.71 1.71 0 0 0-1.288-.467l-3.247-.011c-.361 0-1.571 0-1.576 1.051 0 1.082 1.21 1.041 1.54 1.041l4.236.015c2.675.011 4.578 1.717 4.569 4.168s-1.923 4.33-4.6 4.319zM140.058 12.336h-3.389c-2.663 0-4.6 1.763-4.6 4.191v8.93c0 .202 0 .386.2.386h3.002c.205 0 .229-.18.229-.386V16.5c0-1.046 1.174-1.102 1.535-1.102h3.023c.153 0 .276-.031.276-.2v-2.641c0-.17-.123-.215-.276-.225zM156.447 25.449c0 .204 0 .386.2.386h3.002c.207 0 .229-.18.229-.388v-6.734h-3.431v6.735zM159.683 12.469h-3c-.207 0-.229.18-.229.386v3.677h3.427v-3.677c0-.202 0-.386-.202-.386zM64.939 21.637c0 1.051-.108 1.154-1.508 1.154h-3.814c-.361 0-1.539-.101-1.539-1.154v-.38c0-1.082 1.18-1.128 1.539-1.128h3.814c.361 0 1.508.051 1.508 1.128v.38zm3.427-3.247c0-3.864-2.228-6.066-6.095-6.066h-5.52a.369.369 0 0 0-.261.118.38.38 0 0 0-.1.268v2.276c-.003.099.033.194.101.266s.161.114.26.118h5.144c1.712 0 2.608.541 2.918 1.816a5.865 5.865 0 0 0-.997-.104h-4.582c-2.638 0-4.582 1.74-4.582 4.176v.38c0 2.435 1.945 4.202 4.582 4.202h8.922a.179.179 0 0 0 .181-.103.707.707 0 0 0 .04-.285l-.011-7.063zM154.708 12.321h-2.885c-.205 0-.309.21-.386.449 0 0-2.926 8.405-3.012 8.405s-3.014-8.405-3.014-8.405c-.078-.24-.18-.451-.386-.451h-2.886c-.205 0-.283.211-.18.451 0 0 3.994 11.058 4.823 12.903v.02c.051.112.112.132.148.135h2.957c.038 0 .097-.023.15-.137.808-1.784 4.833-12.927 4.833-12.927.103-.24.027-.449-.18-.449zM165.997 16.524c.598-.767 1-.902 2.646-.927h.771a4.072 4.072 0 0 1 2.054.346c.224.162.422.36.584.584.154.209.181.393.392.393h3.229c.211 0 .283-.19.211-.393a5.965 5.965 0 0 0-.426-.956c-1.061-2.036-2.986-3.106-5.654-3.117h-1.552c-2.925 0-5.315 1.262-5.926 4.067l3.67.004zm9.659 5.015h-3.027c-.203 0-.286.18-.387.39-.44.804-1.322 1.142-2.72 1.142h-.773c-2.227 0-3.083-.855-3.083-3.081v-1.275h-3.472v1.275c0 3.938 2.227 6.158 6.165 6.158h1.552c3.21 0 5.312-1.501 5.954-4.219.051-.204 0-.39-.21-.39zM15.83 32a15.83 15.83 0 0 0 15.666-13.587L.165 18.41A15.826 15.826 0 0 0 15.829 32zM9.012 16.86c-1.29 0-2.542-.202-2.719-.796-.15-.5.456-.94 1.001-1.281a57.156 57.156 0 0 1 7.145-3.274 6.189 6.189 0 0 1 3.595-.229c.911.195 8.601 1.607 13.488 2.502A15.832 15.832 0 0 0 19.946.529a15.814 15.814 0 0 0-12.02 1.567A15.828 15.828 0 0 0 .134 17.874h31.465c.036-.324.061-.653.078-.983L9.011 16.86z"/></symbol></defs></svg>