<svg aria-hidden="true" style="position: absolute; width: 0; height: 0; overflow: hidden;" version="1.1" xmlns="http://www.w3.org/2000/svg" xmlns:xlink="http://www.w3.org/1999/xlink">
<defs>
<symbol id="logo" viewBox="0 0 192 32">
<path d="M180.878 17.657c0.204-1.634 1.1-2.276 3.018-2.276h0.765c1.917 0 2.812 0.642 3.018 2.276h-6.801zM185.045 12.34h-1.541c-3.86 0-6.084 2.224-6.084 6.085v1.348c0 3.858 2.224 6.057 6.084 6.057h6.417c0.094-0.011 0.182-0.056 0.246-0.127s0.101-0.162 0.104-0.257v-2.276c0-0.204 0.025-0.382-0.181-0.382h-6.203c-1.842 0-2.868-0.749-2.966-2.251h9.84c0.101-0.002 0.197-0.043 0.268-0.114 0.072-0.071 0.113-0.167 0.116-0.268v-1.737c0-3.86-2.249-6.085-6.11-6.085z"></path>
<path d="M119.779 17.657c0.204-1.634 1.099-2.276 3.017-2.276h0.766c1.917 0 2.812 0.642 3.016 2.276h-6.799zM123.946 12.34h-1.535c-3.859 0-6.083 2.224-6.083 6.085v1.348c0 3.858 2.224 6.057 6.083 6.057h6.42c0.095-0.011 0.183-0.056 0.247-0.127s0.101-0.162 0.103-0.257v-2.276c0-0.204 0.025-0.382-0.18-0.382h-6.207c-1.84 0-2.868-0.749-2.966-2.251h9.842c0.101-0.002 0.197-0.043 0.268-0.115s0.112-0.167 0.115-0.268v-1.737c0-3.86-2.25-6.085-6.108-6.085z"></path>
<path d="M89.401 17.657c0.204-1.634 1.1-2.276 3.016-2.276h0.766c1.917 0 2.812 0.642 3.018 2.276h-6.801zM93.567 12.34h-1.533c-3.86 0-6.083 2.224-6.083 6.085v1.348c0 3.858 2.223 6.057 6.083 6.057h6.416c0.095-0.011 0.182-0.056 0.247-0.127s0.101-0.162 0.103-0.257v-2.276c0-0.204 0.025-0.382-0.18-0.382h-6.21c-1.84 0-2.866-0.749-2.964-2.251h9.84c0.101-0.002 0.197-0.043 0.268-0.114s0.113-0.167 0.116-0.268v-1.737c0-3.86-2.249-6.085-6.11-6.085z"></path>
<path d="M73.48 25.836c0.207 0 0.258-0.155 0.258-0.361v-7.015c0-2.203 0.455-3.048 3.023-3.048h0.764c2.612 0 3.047 0.846 3.047 2.663v7.396c0 0.207 0.016 0.361 0.224 0.361h2.982c0.204 0 0.227-0.157 0.227-0.361v-7.397c0-3.788-2.049-5.709-6.095-5.709h-1.533c-0.91 0.071-1.804 0.284-2.648 0.631v-0.456c0-0.204 0-0.386-0.21-0.386h-3c-0.206 0-0.209 0.18-0.209 0.386v12.934c0 0.207 0.015 0.361 0.217 0.361l2.953 0.002z"></path>
<path d="M47.18 12.141h-1.54c-0.905-0.002-1.804 0.154-2.655 0.462v-5.005c0-0.15-0.18-0.222-0.361-0.222h-2.734c-0.18 0-0.343 0.071-0.35 0.215v8.935h3.665c0.379-1.032 1.263-1.342 2.818-1.342h0.77c2.177 0 3.050 0.846 3.050 3.048v1.538c0 2.203-0.876 3.152-3.050 3.152h-0.77c-2.203 0-3.048-0.949-3.048-3.152v-1.059h-3.427v6.948c0 0.18 0.157 0.18 0.337 0.18h8.763c2.886-0.083 4.598-2.721 4.598-6.063v-1.539c0-3.869-2.205-6.097-6.066-6.097z"></path>
<path d="M110.516 26.154l-4.591-0.016c-2.526 0-4.405-1.624-4.577-3.864-0.003-0.049 0.004-0.099 0.020-0.146 0.017-0.047 0.043-0.090 0.077-0.126s0.074-0.065 0.12-0.085c0.045-0.020 0.094-0.030 0.144-0.030l2.733 0.009c0.209 0 0.31 0.18 0.385 0.39 0.234 0.7 1.16 0.781 1.467 0.781l3.844 0.015c0.361 0 1.522-0.206 1.525-1.262 0.002-1.057-1.16-1.082-1.518-1.082l-4.208-0.020c-2.685-0.011-4.616-1.665-4.607-4.095s1.952-4.149 4.605-4.138l4.048 0.015c2.397 0 4.202 1.465 4.525 3.552 0.002 0.051-0.007 0.102-0.026 0.15s-0.048 0.091-0.084 0.127c-0.036 0.036-0.080 0.064-0.128 0.083-0.047 0.019-0.098 0.027-0.15 0.026h-2.684c-0.117-0.021-0.227-0.066-0.324-0.134s-0.179-0.155-0.239-0.256c-0.171-0.163-0.373-0.288-0.595-0.369s-0.458-0.114-0.693-0.098l-3.247-0.011c-0.361 0-1.571 0-1.576 1.051 0 1.082 1.21 1.041 1.54 1.041l4.236 0.015c2.675 0.011 4.578 1.717 4.569 4.169s-1.923 4.329-4.6 4.319z"></path>
<path d="M140.059 12.335h-3.389c-2.663 0-4.6 1.763-4.6 4.191v8.93c0 0.202 0 0.386 0.201 0.386h3.001c0.206 0 0.23-0.18 0.23-0.386v-8.957c0-1.046 1.174-1.102 1.535-1.102h3.023c0.153 0 0.276-0.031 0.276-0.2v-2.641c0-0.17-0.123-0.215-0.276-0.225z"></path>
<path d="M156.447 25.45c0 0.204 0 0.386 0.2 0.386h3.002c0.207 0 0.23-0.18 0.23-0.387v-6.734h-3.432v6.735z"></path>
<path d="M159.683 12.469h-3c-0.208 0-0.23 0.18-0.23 0.386v3.677h3.427v-3.677c0-0.202 0-0.386-0.202-0.386z"></path>
<path d="M64.94 21.637c0 1.051-0.108 1.154-1.508 1.154h-3.814c-0.361 0-1.538-0.101-1.538-1.154v-0.381c0-1.082 1.179-1.128 1.538-1.128h3.814c0.361 0 1.508 0.051 1.508 1.128v0.381zM68.367 18.39c0-3.864-2.228-6.066-6.095-6.066h-5.52c-0.049 0.001-0.097 0.012-0.142 0.033s-0.085 0.049-0.119 0.085c-0.034 0.036-0.060 0.078-0.077 0.124s-0.025 0.095-0.023 0.144v2.276c-0.003 0.099 0.034 0.194 0.101 0.267s0.161 0.114 0.26 0.118h5.144c1.712 0 2.608 0.541 2.918 1.816-0.329-0.063-0.663-0.098-0.997-0.105h-4.582c-2.638 0-4.582 1.741-4.582 4.176v0.381c0 2.435 1.945 4.202 4.582 4.202h8.922c0.037 0.004 0.074-0.004 0.106-0.023s0.058-0.046 0.074-0.080c0.033-0.091 0.046-0.188 0.040-0.285l-0.011-7.063z"></path>
<path d="M154.707 12.322h-2.885c-0.206 0-0.309 0.21-0.386 0.449 0 0-2.926 8.405-3.012 8.405s-3.014-8.405-3.014-8.405c-0.078-0.24-0.181-0.451-0.386-0.451h-2.886c-0.206 0-0.283 0.211-0.181 0.451 0 0 3.994 11.058 4.824 12.903v0.020c0.050 0.112 0.112 0.132 0.147 0.135h2.957c0.038 0 0.098-0.023 0.15-0.137 0.808-1.784 4.833-12.927 4.833-12.927 0.102-0.24 0.027-0.449-0.181-0.449z"></path>
<path d="M165.996 16.524c0.599-0.767 1.001-0.902 2.647-0.927h0.772c0.703-0.065 1.411 0.055 2.054 0.346 0.225 0.162 0.422 0.359 0.584 0.584 0.154 0.21 0.18 0.393 0.392 0.393h3.228c0.212 0 0.284-0.19 0.212-0.393-0.114-0.33-0.256-0.65-0.426-0.956-1.060-2.036-2.985-3.106-5.655-3.117h-1.551c-2.924 0-5.316 1.262-5.926 4.067l3.669 0.003zM175.656 21.539h-3.027c-0.204 0-0.286 0.18-0.387 0.39-0.441 0.804-1.322 1.142-2.721 1.142h-0.772c-2.228 0-3.083-0.855-3.083-3.081v-1.275h-3.473v1.275c0 3.938 2.228 6.158 6.166 6.158h1.551c3.211 0 5.312-1.501 5.954-4.219 0.050-0.204 0-0.39-0.21-0.39z"></path>
<path d="M15.831 32c3.809-0.001 7.49-1.375 10.368-3.871s4.759-5.945 5.298-9.716l-31.331-0.003c0.538 3.771 2.419 7.222 5.296 9.718s6.559 3.871 10.368 3.872z"></path>
<path d="M9.012 16.86c-1.29 0-2.542-0.202-2.719-0.796-0.15-0.5 0.456-0.94 1.001-1.28 2.304-1.254 4.691-2.348 7.145-3.274 1.149-0.431 2.401-0.511 3.595-0.229 0.911 0.195 8.601 1.607 13.488 2.502-0.266-2.063-0.937-4.053-1.973-5.856s-2.418-3.385-4.065-4.654c-1.648-1.269-3.529-2.201-5.538-2.743s-4.103-0.682-6.166-0.413c-2.063 0.269-4.052 0.942-5.854 1.98s-3.382 2.421-4.65 4.071c-1.267 1.649-2.197 3.532-2.736 5.541s-0.677 4.104-0.406 6.166h31.465c0.036-0.325 0.061-0.653 0.078-0.983l-22.666-0.031z"></path>
</symbol>
<symbol id="arrow-up-right" viewBox="0 0 32 32">
<path fill="none" stroke="#1f4a21" style="stroke: var(--color1, #1f4a21)" stroke-linejoin="round" stroke-linecap="round" stroke-miterlimit="4" stroke-width="2.6667" d="M6.572 16h18.856"></path>
<path fill="none" stroke="#1f4a21" style="stroke: var(--color1, #1f4a21)" stroke-linejoin="round" stroke-linecap="round" stroke-miterlimit="4" stroke-width="2.6667" d="M16 6.572l9.428 9.428-9.428 9.428"></path>
</symbol>
<symbol id="icon-Vector" viewBox="0 0 23 32">
<path d="M2.958 0.62c-0.213-0.151-0.463-0.241-0.723-0.26s-0.521 0.035-0.753 0.154c-0.232 0.12-0.427 0.301-0.563 0.524s-0.208 0.479-0.208 0.74v28.444c0 0.261 0.072 0.517 0.208 0.74s0.331 0.404 0.563 0.524c0.232 0.12 0.493 0.173 0.753 0.154s0.511-0.109 0.723-0.26l19.911-14.222c0.184-0.132 0.335-0.305 0.438-0.507s0.158-0.425 0.158-0.651c0-0.227-0.054-0.45-0.158-0.651s-0.254-0.375-0.438-0.507l-19.911-14.222z"></path>
</symbol>

</defs>
</svg>
